<?xml version="1.0" encoding="UTF-8" standalone="no"?>
<!-- Created with Inkscape (http://www.inkscape.org/) -->

<svg
   xmlns:dc="http://purl.org/dc/elements/1.1/"
   xmlns:cc="http://creativecommons.org/ns#"
   xmlns:rdf="http://www.w3.org/1999/02/22-rdf-syntax-ns#"
   xmlns:svg="http://www.w3.org/2000/svg"
   xmlns="http://www.w3.org/2000/svg"
   xmlns:sodipodi="http://sodipodi.sourceforge.net/DTD/sodipodi-0.dtd"
   xmlns:inkscape="http://www.inkscape.org/namespaces/inkscape"
   id="svg2985"
   version="1.1"
   inkscape:version="0.48.4 r9939"
   width="247"
   height="500"
   sodipodi:docname="catanChits.jpg">
  <metadata
     id="metadata2991">
    <rdf:RDF>
      <cc:Work
         rdf:about="">
        <dc:format>image/svg+xml</dc:format>
        <dc:type
           rdf:resource="http://purl.org/dc/dcmitype/StillImage" />
        <dc:title></dc:title>
      </cc:Work>
    </rdf:RDF>
  </metadata>
  <defs
     id="defs2989" />
  <sodipodi:namedview
     pagecolor="#ffffff"
     bordercolor="#666666"
     borderopacity="1"
     objecttolerance="10"
     gridtolerance="10"
     guidetolerance="10"
     inkscape:pageopacity="0"
     inkscape:pageshadow="2"
     inkscape:window-width="1366"
     inkscape:window-height="746"
     id="namedview2987"
     showgrid="false"
     inkscape:zoom="1"
     inkscape:cx="-55"
     inkscape:cy="254.5086"
     inkscape:window-x="-8"
     inkscape:window-y="-8"
     inkscape:window-maximized="1"
     inkscape:current-layer="svg2985">
    <inkscape:grid
       type="xygrid"
       id="grid3581" />
  </sodipodi:namedview>
  <path
     sodipodi:type="arc"
     style="fill:#e9c6af;fill-opacity:1"
     id="path2997"
     sodipodi:cx="47.85331"
     sodipodi:cy="41.592129"
     sodipodi:rx="32.647587"
     sodipodi:ry="29.964222"
     d="m 80.500896,41.592129 a 32.647587,29.964222 0 1 1 -65.295173,0 32.647587,29.964222 0 1 1 65.295173,0 z"
     transform="matrix(0.9954794,0,0,-1.0846269,75.86302,105.61194)" />
  <path
     sodipodi:type="arc"
     style="fill:#e9c6af;fill-opacity:1"
     id="path2997-1"
     sodipodi:cx="47.85331"
     sodipodi:cy="41.592129"
     sodipodi:rx="32.647587"
     sodipodi:ry="29.964222"
     d="m 80.500896,41.592129 a 32.647587,29.964222 0 1 1 -65.295173,0 32.647587,29.964222 0 1 1 65.295173,0 z"
     transform="matrix(0.9954794,0,0,-1.0846269,0.86302,105.61194)" />
  <path
     sodipodi:type="arc"
     style="fill:#e9c6af;fill-opacity:1"
     id="path2997-7"
     sodipodi:cx="47.85331"
     sodipodi:cy="41.592129"
     sodipodi:rx="32.647587"
     sodipodi:ry="29.964222"
     d="m 80.500896,41.592129 a 32.647587,29.964222 0 1 1 -65.295173,0 32.647587,29.964222 0 1 1 65.295173,0 z"
     transform="matrix(0.9954794,0,0,-1.0846269,150.86302,105.61194)" />
  <path
     sodipodi:type="arc"
     style="fill:#e9c6af;fill-opacity:1"
     id="path2997-4"
     sodipodi:cx="47.85331"
     sodipodi:cy="41.592129"
     sodipodi:rx="32.647587"
     sodipodi:ry="29.964222"
     d="m 80.500896,41.592129 a 32.647587,29.964222 0 1 1 -65.295173,0 32.647587,29.964222 0 1 1 65.295173,0 z"
     transform="matrix(0.9954794,0,0,-1.0846269,75.86302,180.61194)" />
  <path
     sodipodi:type="arc"
     style="fill:#e9c6af;fill-opacity:1"
     id="path2997-1-0"
     sodipodi:cx="47.85331"
     sodipodi:cy="41.592129"
     sodipodi:rx="32.647587"
     sodipodi:ry="29.964222"
     d="m 80.500896,41.592129 a 32.647587,29.964222 0 1 1 -65.295173,0 32.647587,29.964222 0 1 1 65.295173,0 z"
     transform="matrix(0.9954794,0,0,-1.0846269,0.86302,180.61194)" />
  <path
     sodipodi:type="arc"
     style="fill:#e9c6af;fill-opacity:1"
     id="path2997-7-9"
     sodipodi:cx="47.85331"
     sodipodi:cy="41.592129"
     sodipodi:rx="32.647587"
     sodipodi:ry="29.964222"
     d="m 80.500896,41.592129 a 32.647587,29.964222 0 1 1 -65.295173,0 32.647587,29.964222 0 1 1 65.295173,0 z"
     transform="matrix(0.9954794,0,0,-1.0846269,150.86303,180.61194)" />
  <path
     sodipodi:type="arc"
     style="fill:#e9c6af;fill-opacity:1"
     id="path2997-48"
     sodipodi:cx="47.85331"
     sodipodi:cy="41.592129"
     sodipodi:rx="32.647587"
     sodipodi:ry="29.964222"
     d="m 80.500896,41.592129 a 32.647587,29.964222 0 1 1 -65.295173,0 32.647587,29.964222 0 1 1 65.295173,0 z"
     transform="matrix(0.9954794,0,0,-1.0846269,75.86302,255.61194)" />
  <path
     sodipodi:type="arc"
     style="fill:#e9c6af;fill-opacity:1"
     id="path2997-1-8"
     sodipodi:cx="47.85331"
     sodipodi:cy="41.592129"
     sodipodi:rx="32.647587"
     sodipodi:ry="29.964222"
     d="m 80.500896,41.592129 a 32.647587,29.964222 0 1 1 -65.295173,0 32.647587,29.964222 0 1 1 65.295173,0 z"
     transform="matrix(0.9954794,0,0,-1.0846269,0.86302,255.61194)" />
  <path
     sodipodi:type="arc"
     style="fill:#e9c6af;fill-opacity:1"
     id="path2997-7-2"
     sodipodi:cx="47.85331"
     sodipodi:cy="41.592129"
     sodipodi:rx="32.647587"
     sodipodi:ry="29.964222"
     d="m 80.500896,41.592129 a 32.647587,29.964222 0 1 1 -65.295173,0 32.647587,29.964222 0 1 1 65.295173,0 z"
     transform="matrix(0.9954794,0,0,-1.0846269,150.86302,255.61194)" />
  <path
     sodipodi:type="arc"
     style="fill:#e9c6af;fill-opacity:1"
     id="path2997-4-4"
     sodipodi:cx="47.85331"
     sodipodi:cy="41.592129"
     sodipodi:rx="32.647587"
     sodipodi:ry="29.964222"
     d="m 80.500896,41.592129 a 32.647587,29.964222 0 1 1 -65.295173,0 32.647587,29.964222 0 1 1 65.295173,0 z"
     transform="matrix(0.9954794,0,0,-1.0846269,75.86302,330.61194)" />
  <path
     sodipodi:type="arc"
     style="fill:#e9c6af;fill-opacity:1"
     id="path2997-1-0-5"
     sodipodi:cx="47.85331"
     sodipodi:cy="41.592129"
     sodipodi:rx="32.647587"
     sodipodi:ry="29.964222"
     d="m 80.500896,41.592129 a 32.647587,29.964222 0 1 1 -65.295173,0 32.647587,29.964222 0 1 1 65.295173,0 z"
     transform="matrix(0.9954794,0,0,-1.0846269,0.86302,330.61194)" />
  <path
     sodipodi:type="arc"
     style="fill:#e9c6af;fill-opacity:1"
     id="path2997-7-9-5"
     sodipodi:cx="47.85331"
     sodipodi:cy="41.592129"
     sodipodi:rx="32.647587"
     sodipodi:ry="29.964222"
     d="m 80.500896,41.592129 a 32.647587,29.964222 0 1 1 -65.295173,0 32.647587,29.964222 0 1 1 65.295173,0 z"
     transform="matrix(0.9954794,0,0,-1.0846269,150.86303,330.61194)" />
  <path
     sodipodi:type="arc"
     style="fill:#e9c6af;fill-opacity:1"
     id="path2997-48-1"
     sodipodi:cx="47.85331"
     sodipodi:cy="41.592129"
     sodipodi:rx="32.647587"
     sodipodi:ry="29.964222"
     d="m 80.500896,41.592129 a 32.647587,29.964222 0 1 1 -65.295173,0 32.647587,29.964222 0 1 1 65.295173,0 z"
     transform="matrix(0.9954794,0,0,-1.0846269,75.86302,405.61194)" />
  <path
     sodipodi:type="arc"
     style="fill:#e9c6af;fill-opacity:1"
     id="path2997-1-8-7"
     sodipodi:cx="47.85331"
     sodipodi:cy="41.592129"
     sodipodi:rx="32.647587"
     sodipodi:ry="29.964222"
     d="m 80.500896,41.592129 a 32.647587,29.964222 0 1 1 -65.295173,0 32.647587,29.964222 0 1 1 65.295173,0 z"
     transform="matrix(0.9954794,0,0,-1.0846269,0.86302,405.61194)" />
  <path
     sodipodi:type="arc"
     style="fill:#e9c6af;fill-opacity:1"
     id="path2997-7-2-1"
     sodipodi:cx="47.85331"
     sodipodi:cy="41.592129"
     sodipodi:rx="32.647587"
     sodipodi:ry="29.964222"
     d="m 80.500896,41.592129 a 32.647587,29.964222 0 1 1 -65.295173,0 32.647587,29.964222 0 1 1 65.295173,0 z"
     transform="matrix(0.9954794,0,0,-1.0846269,150.86302,405.61194)" />
  <path
     sodipodi:type="arc"
     style="fill:#e9c6af;fill-opacity:1"
     id="path2997-4-4-1"
     sodipodi:cx="47.85331"
     sodipodi:cy="41.592129"
     sodipodi:rx="32.647587"
     sodipodi:ry="29.964222"
     d="m 80.500896,41.592129 a 32.647587,29.964222 0 1 1 -65.295173,0 32.647587,29.964222 0 1 1 65.295173,0 z"
     transform="matrix(0.9954794,0,0,-1.0846269,75.86302,480.61194)" />
  <path
     sodipodi:type="arc"
     style="fill:#e9c6af;fill-opacity:1"
     id="path2997-1-0-5-5"
     sodipodi:cx="47.85331"
     sodipodi:cy="41.592129"
     sodipodi:rx="32.647587"
     sodipodi:ry="29.964222"
     d="m 80.500896,41.592129 a 32.647587,29.964222 0 1 1 -65.295173,0 32.647587,29.964222 0 1 1 65.295173,0 z"
     transform="matrix(0.9954794,0,0,-1.0846269,0.86302,480.61194)" />
  <path
     sodipodi:type="arc"
     style="fill:#e9c6af;fill-opacity:1"
     id="path2997-7-9-5-2"
     sodipodi:cx="47.85331"
     sodipodi:cy="41.592129"
     sodipodi:rx="32.647587"
     sodipodi:ry="29.964222"
     d="m 80.500896,41.592129 a 32.647587,29.964222 0 1 1 -65.295173,0 32.647587,29.964222 0 1 1 65.295173,0 z"
     transform="matrix(0.9954794,0,0,-1.0846269,150.86303,480.61194)" />
  <text
     xml:space="preserve"
     style="font-size:28px;font-style:normal;font-weight:normal;line-height:125%;letter-spacing:0px;word-spacing:0px;fill:#000000;fill-opacity:1;stroke:none;font-family:Sans"
     x="-282.64758"
     y="85.867622"
     id="text3127"
     sodipodi:linespacing="125%"><tspan
       sodipodi:role="line"
       id="tspan3129"></tspan></text>
  <text
     xml:space="preserve"
     style="font-size:40px;font-style:normal;font-weight:normal;line-height:125%;letter-spacing:0px;word-spacing:0px;fill:#000000;fill-opacity:1;stroke:none;font-family:Sans"
     x="36.656494"
     y="73.500893"
     id="text3131"
     sodipodi:linespacing="125%"><tspan
       sodipodi:role="line"
       id="tspan3133"
       x="36.656494"
       y="73.500893">5</tspan></text>
  <text
     xml:space="preserve"
     style="font-size:40px;font-style:normal;font-weight:normal;line-height:125%;letter-spacing:0px;word-spacing:0px;fill:#000000;fill-opacity:1;stroke:none;font-family:Sans"
     x="111.16995"
     y="74.395348"
     id="text3135"
     sodipodi:linespacing="125%"><tspan
       sodipodi:role="line"
       id="tspan3137"
       x="111.16995"
       y="74.395348">2</tspan></text>
  <text
     xml:space="preserve"
     style="font-size:40px;font-style:normal;font-weight:normal;line-height:125%;letter-spacing:0px;word-spacing:0px;fill:#d40000;fill-opacity:1;stroke:none;font-family:Sans"
     x="187.19856"
     y="74.395348"
     id="text3139"
     sodipodi:linespacing="125%"><tspan
       sodipodi:role="line"
       id="tspan3141"
       x="187.19856"
       y="74.395348">6</tspan></text>
  <text
     xml:space="preserve"
     style="font-size:40px;font-style:normal;font-weight:normal;line-height:125%;letter-spacing:0px;word-spacing:0px;fill:#000000;fill-opacity:1;stroke:none;font-family:Sans"
     x="37.824677"
     y="149.52951"
     id="text3143"
     sodipodi:linespacing="125%"><tspan
       sodipodi:role="line"
       id="tspan3145"
       x="37.824677"
       y="149.52951">3</tspan></text>
  <text
     xml:space="preserve"
     style="font-size:40px;font-style:normal;font-weight:normal;line-height:125%;letter-spacing:0px;word-spacing:0px;fill:#d40000;fill-opacity:1;stroke:none;font-family:Sans"
     x="112.06441"
     y="149.52953"
     id="text3147"
     sodipodi:linespacing="125%"><tspan
       sodipodi:role="line"
       id="tspan3149"
       x="112.06441"
       y="149.52953">8</tspan></text>
  <text
     xml:space="preserve"
     style="font-size:40px;font-style:normal;font-weight:normal;line-height:125%;letter-spacing:0px;word-spacing:0px;fill:#000000;fill-opacity:1;stroke:none;font-family:Sans"
     x="175.57066"
     y="149.52953"
     id="text3151"
     sodipodi:linespacing="125%"><tspan
       sodipodi:role="line"
       id="tspan3153"
       x="175.57066"
       y="149.52953">10</tspan></text>
  <text
     xml:space="preserve"
     style="font-size:40px;font-style:normal;font-weight:normal;line-height:125%;letter-spacing:0px;word-spacing:0px;fill:#000000;fill-opacity:1;stroke:none;font-family:Sans"
     x="36"
     y="223"
     id="text3155"
     sodipodi:linespacing="125%"><tspan
       sodipodi:role="line"
       id="tspan3157"
       x="36"
       y="223">9</tspan></text>
  <text
     xml:space="preserve"
     style="font-size:40px;font-style:normal;font-weight:normal;line-height:125%;letter-spacing:0px;word-spacing:0px;fill:#000000;fill-opacity:1;stroke:none;font-family:Sans"
     x="100.43649"
     y="224.66368"
     id="text3159"
     sodipodi:linespacing="125%"><tspan
       sodipodi:role="line"
       id="tspan3161"
       x="100.43649"
       y="224.66368">12</tspan></text>
  <text
     xml:space="preserve"
     style="font-size:40px;font-style:normal;font-weight:normal;line-height:125%;letter-spacing:0px;word-spacing:0px;fill:#000000;fill-opacity:1;stroke:none;font-family:Sans"
     x="177.35957"
     y="223.76924"
     id="text3163"
     sodipodi:linespacing="125%"><tspan
       sodipodi:role="line"
       id="tspan3165"
       x="177.35957"
       y="223.76924">11</tspan></text>
  <text
     xml:space="preserve"
     style="font-size:40px;font-style:normal;font-weight:normal;line-height:125%;letter-spacing:0px;word-spacing:0px;fill:#000000;fill-opacity:1;stroke:none;font-family:Sans"
     x="36.930237"
     y="298.90338"
     id="text3167"
     sodipodi:linespacing="125%"><tspan
       sodipodi:role="line"
       id="tspan3169"
       x="36.930237"
       y="298.90338">4</tspan></text>
  <text
     xml:space="preserve"
     style="font-size:40px;font-style:normal;font-weight:normal;line-height:125%;letter-spacing:0px;word-spacing:0px;fill:#d40000;fill-opacity:1;stroke:none;font-family:Sans"
     x="112.95886"
     y="299.79785"
     id="text3171"
     sodipodi:linespacing="125%"><tspan
       sodipodi:role="line"
       id="tspan3173"
       x="112.95886"
       y="299.79785">8</tspan></text>
  <text
     xml:space="preserve"
     style="font-size:40px;font-style:normal;font-weight:normal;line-height:125%;letter-spacing:0px;word-spacing:0px;fill:#000000;fill-opacity:1;stroke:none;font-family:Sans"
     x="175.57065"
     y="299.79785"
     id="text3175"
     sodipodi:linespacing="125%"><tspan
       sodipodi:role="line"
       id="tspan3177"
       x="175.57065"
       y="299.79785">10</tspan></text>
  <text
     xml:space="preserve"
     style="font-size:40px;font-style:normal;font-weight:normal;line-height:125%;letter-spacing:0px;word-spacing:0px;fill:#000000;fill-opacity:1;stroke:none;font-family:Sans"
     x="36.930206"
     y="374.03757"
     id="text3179"
     sodipodi:linespacing="125%"><tspan
       sodipodi:role="line"
       id="tspan3181"
       x="36.930206"
       y="374.03757">9</tspan></text>
  <text
     xml:space="preserve"
     style="font-size:40px;font-style:normal;font-weight:normal;line-height:125%;letter-spacing:0px;word-spacing:0px;fill:#000000;fill-opacity:1;stroke:none;font-family:Sans"
     x="112.06441"
     y="374.03757"
     id="text3183"
     sodipodi:linespacing="125%"><tspan
       sodipodi:role="line"
       id="tspan3185"
       x="112.06441"
       y="374.03757">4</tspan></text>
  <text
     xml:space="preserve"
     style="font-size:40px;font-style:normal;font-weight:normal;line-height:125%;letter-spacing:0px;word-spacing:0px;fill:#000000;fill-opacity:1;stroke:none;font-family:Sans"
     x="186.30412"
     y="373.1431"
     id="text3187"
     sodipodi:linespacing="125%"><tspan
       sodipodi:role="line"
       id="tspan3189"
       x="186.30412"
       y="373.1431">5</tspan></text>
  <text
     xml:space="preserve"
     style="font-size:40px;font-style:normal;font-weight:normal;line-height:125%;letter-spacing:0px;word-spacing:0px;fill:#d40000;fill-opacity:1;stroke:none;font-family:Sans"
     x="36.035767"
     y="450.06619"
     id="text3191"
     sodipodi:linespacing="125%"><tspan
       sodipodi:role="line"
       id="tspan3193"
       x="36.035767"
       y="450.06619">6</tspan></text>
  <text
     xml:space="preserve"
     style="font-size:40px;font-style:normal;font-weight:normal;line-height:125%;letter-spacing:0px;word-spacing:0px;fill:#000000;fill-opacity:1;stroke:none;font-family:Sans"
     x="112.95886"
     y="450.06619"
     id="text3195"
     sodipodi:linespacing="125%"><tspan
       sodipodi:role="line"
       id="tspan3197"
       x="112.95886"
       y="450.06619">3</tspan></text>
  <text
     xml:space="preserve"
     style="font-size:40px;font-style:normal;font-weight:normal;line-height:125%;letter-spacing:0px;word-spacing:0px;fill:#000000;fill-opacity:1;stroke:none;font-family:Sans"
     x="177.35956"
     y="448.27728"
     id="text3199"
     sodipodi:linespacing="125%"><tspan
       sodipodi:role="line"
       id="tspan3201"
       x="177.35956"
       y="448.27728">11</tspan></text>
  <path
     sodipodi:type="arc"
     style="fill:#d40000;fill-opacity:1"
     id="path3203-1"
     sodipodi:cx="-385.50983"
     sodipodi:cy="126.11806"
     sodipodi:rx="2.6833632"
     sodipodi:ry="2.6833632"
     d="m -382.82646,126.11806 a 2.6833632,2.6833632 0 1 1 -5.36673,0 2.6833632,2.6833632 0 1 1 5.36673,0 z"
     transform="matrix(0.93166665,0,0,0.93166665,548.15882,-36.873531)" />
  <path
     sodipodi:type="arc"
     style="fill:#d40000;fill-opacity:1"
     id="path3203-2-6"
     sodipodi:cx="-385.50983"
     sodipodi:cy="126.11806"
     sodipodi:rx="2.6833632"
     sodipodi:ry="2.6833632"
     d="m -382.82646,126.11806 a 2.6833632,2.6833632 0 1 1 -5.36673,0 2.6833632,2.6833632 0 1 1 5.36673,0 z"
     transform="matrix(0.93166665,0,0,0.93166665,553.15882,-36.873531)" />
  <path
     sodipodi:type="arc"
     style="fill:#d40000;fill-opacity:1"
     id="path3203-3-8"
     sodipodi:cx="-385.50983"
     sodipodi:cy="126.11806"
     sodipodi:rx="2.6833632"
     sodipodi:ry="2.6833632"
     d="m -382.82646,126.11806 a 2.6833632,2.6833632 0 1 1 -5.36673,0 2.6833632,2.6833632 0 1 1 5.36673,0 z"
     transform="matrix(0.93166665,0,0,0.93166665,558.15882,-36.873531)" />
  <path
     sodipodi:type="arc"
     style="fill:#d40000;fill-opacity:1"
     id="path3203-2-2-5"
     sodipodi:cx="-385.50983"
     sodipodi:cy="126.11806"
     sodipodi:rx="2.6833632"
     sodipodi:ry="2.6833632"
     d="m -382.82646,126.11806 a 2.6833632,2.6833632 0 1 1 -5.36673,0 2.6833632,2.6833632 0 1 1 5.36673,0 z"
     transform="matrix(0.93166665,0,0,0.93166665,563.15882,-36.873531)" />
  <path
     sodipodi:type="arc"
     style="fill:#d40000;fill-opacity:1"
     id="path3203-2-2-2-7"
     sodipodi:cx="-385.50983"
     sodipodi:cy="126.11806"
     sodipodi:rx="2.6833632"
     sodipodi:ry="2.6833632"
     d="m -382.82646,126.11806 a 2.6833632,2.6833632 0 1 1 -5.36673,0 2.6833632,2.6833632 0 1 1 5.36673,0 z"
     transform="matrix(0.93166665,0,0,0.93166665,568.15882,-36.873531)" />
  <path
     sodipodi:type="arc"
     style="fill:#d40000;fill-opacity:1"
     id="path3203-6"
     sodipodi:cx="-385.50983"
     sodipodi:cy="126.11806"
     sodipodi:rx="2.6833632"
     sodipodi:ry="2.6833632"
     d="m -382.82646,126.11806 a 2.6833632,2.6833632 0 1 1 -5.36673,0 2.6833632,2.6833632 0 1 1 5.36673,0 z"
     transform="matrix(0.93166665,0,0,0.93166665,473.67311,38.389881)" />
  <path
     sodipodi:type="arc"
     style="fill:#d40000;fill-opacity:1"
     id="path3203-2-1"
     sodipodi:cx="-385.50983"
     sodipodi:cy="126.11806"
     sodipodi:rx="2.6833632"
     sodipodi:ry="2.6833632"
     d="m -382.82646,126.11806 a 2.6833632,2.6833632 0 1 1 -5.36673,0 2.6833632,2.6833632 0 1 1 5.36673,0 z"
     transform="matrix(0.93166665,0,0,0.93166665,478.67311,38.389881)" />
  <path
     sodipodi:type="arc"
     style="fill:#d40000;fill-opacity:1"
     id="path3203-3-89"
     sodipodi:cx="-385.50983"
     sodipodi:cy="126.11806"
     sodipodi:rx="2.6833632"
     sodipodi:ry="2.6833632"
     d="m -382.82646,126.11806 a 2.6833632,2.6833632 0 1 1 -5.36673,0 2.6833632,2.6833632 0 1 1 5.36673,0 z"
     transform="matrix(0.93166665,0,0,0.93166665,483.67311,38.389881)" />
  <path
     sodipodi:type="arc"
     style="fill:#d40000;fill-opacity:1"
     id="path3203-2-2-27"
     sodipodi:cx="-385.50983"
     sodipodi:cy="126.11806"
     sodipodi:rx="2.6833632"
     sodipodi:ry="2.6833632"
     d="m -382.82646,126.11806 a 2.6833632,2.6833632 0 1 1 -5.36673,0 2.6833632,2.6833632 0 1 1 5.36673,0 z"
     transform="matrix(0.93166665,0,0,0.93166665,488.67311,38.389881)" />
  <path
     sodipodi:type="arc"
     style="fill:#d40000;fill-opacity:1"
     id="path3203-2-2-2-9"
     sodipodi:cx="-385.50983"
     sodipodi:cy="126.11806"
     sodipodi:rx="2.6833632"
     sodipodi:ry="2.6833632"
     d="m -382.82646,126.11806 a 2.6833632,2.6833632 0 1 1 -5.36673,0 2.6833632,2.6833632 0 1 1 5.36673,0 z"
     transform="matrix(0.93166665,0,0,0.93166665,493.67311,38.389881)" />
  <path
     sodipodi:type="arc"
     style="fill:#d40000;fill-opacity:1"
     id="path3203-5"
     sodipodi:cx="-385.50983"
     sodipodi:cy="126.11806"
     sodipodi:rx="2.6833632"
     sodipodi:ry="2.6833632"
     d="m -382.82646,126.11806 a 2.6833632,2.6833632 0 1 1 -5.36673,0 2.6833632,2.6833632 0 1 1 5.36673,0 z"
     transform="matrix(0.93166665,0,0,0.93166665,474.15927,189.2362)" />
  <path
     sodipodi:type="arc"
     style="fill:#d40000;fill-opacity:1"
     id="path3203-2-4"
     sodipodi:cx="-385.50983"
     sodipodi:cy="126.11806"
     sodipodi:rx="2.6833632"
     sodipodi:ry="2.6833632"
     d="m -382.82646,126.11806 a 2.6833632,2.6833632 0 1 1 -5.36673,0 2.6833632,2.6833632 0 1 1 5.36673,0 z"
     transform="matrix(0.93166665,0,0,0.93166665,479.15927,189.2362)" />
  <path
     sodipodi:type="arc"
     style="fill:#d40000;fill-opacity:1"
     id="path3203-3-3"
     sodipodi:cx="-385.50983"
     sodipodi:cy="126.11806"
     sodipodi:rx="2.6833632"
     sodipodi:ry="2.6833632"
     d="m -382.82646,126.11806 a 2.6833632,2.6833632 0 1 1 -5.36673,0 2.6833632,2.6833632 0 1 1 5.36673,0 z"
     transform="matrix(0.93166665,0,0,0.93166665,484.15927,189.2362)" />
  <path
     sodipodi:type="arc"
     style="fill:#d40000;fill-opacity:1"
     id="path3203-2-2-1"
     sodipodi:cx="-385.50983"
     sodipodi:cy="126.11806"
     sodipodi:rx="2.6833632"
     sodipodi:ry="2.6833632"
     d="m -382.82646,126.11806 a 2.6833632,2.6833632 0 1 1 -5.36673,0 2.6833632,2.6833632 0 1 1 5.36673,0 z"
     transform="matrix(0.93166665,0,0,0.93166665,489.15927,189.2362)" />
  <path
     sodipodi:type="arc"
     style="fill:#d40000;fill-opacity:1"
     id="path3203-2-2-2-2"
     sodipodi:cx="-385.50983"
     sodipodi:cy="126.11806"
     sodipodi:rx="2.6833632"
     sodipodi:ry="2.6833632"
     d="m -382.82646,126.11806 a 2.6833632,2.6833632 0 1 1 -5.36673,0 2.6833632,2.6833632 0 1 1 5.36673,0 z"
     transform="matrix(0.93166665,0,0,0.93166665,494.15927,189.2362)" />
  <path
     sodipodi:type="arc"
     style="fill:#d40000;fill-opacity:1"
     id="path3203-33"
     sodipodi:cx="-385.50983"
     sodipodi:cy="126.11806"
     sodipodi:rx="2.6833632"
     sodipodi:ry="2.6833632"
     d="m -382.82646,126.11806 a 2.6833632,2.6833632 0 1 1 -5.36673,0 2.6833632,2.6833632 0 1 1 5.36673,0 z"
     transform="matrix(0.93166665,0,0,0.93166665,397.62982,339.44895)" />
  <path
     sodipodi:type="arc"
     style="fill:#d40000;fill-opacity:1"
     id="path3203-2-41"
     sodipodi:cx="-385.50983"
     sodipodi:cy="126.11806"
     sodipodi:rx="2.6833632"
     sodipodi:ry="2.6833632"
     d="m -382.82646,126.11806 a 2.6833632,2.6833632 0 1 1 -5.36673,0 2.6833632,2.6833632 0 1 1 5.36673,0 z"
     transform="matrix(0.93166665,0,0,0.93166665,402.62982,339.44895)" />
  <path
     sodipodi:type="arc"
     style="fill:#d40000;fill-opacity:1"
     id="path3203-3-1"
     sodipodi:cx="-385.50983"
     sodipodi:cy="126.11806"
     sodipodi:rx="2.6833632"
     sodipodi:ry="2.6833632"
     d="m -382.82646,126.11806 a 2.6833632,2.6833632 0 1 1 -5.36673,0 2.6833632,2.6833632 0 1 1 5.36673,0 z"
     transform="matrix(0.93166665,0,0,0.93166665,407.62982,339.44895)" />
  <path
     sodipodi:type="arc"
     style="fill:#d40000;fill-opacity:1"
     id="path3203-2-2-3"
     sodipodi:cx="-385.50983"
     sodipodi:cy="126.11806"
     sodipodi:rx="2.6833632"
     sodipodi:ry="2.6833632"
     d="m -382.82646,126.11806 a 2.6833632,2.6833632 0 1 1 -5.36673,0 2.6833632,2.6833632 0 1 1 5.36673,0 z"
     transform="matrix(0.93166665,0,0,0.93166665,412.62982,339.44895)" />
  <path
     sodipodi:type="arc"
     style="fill:#d40000;fill-opacity:1"
     id="path3203-2-2-2-8"
     sodipodi:cx="-385.50983"
     sodipodi:cy="126.11806"
     sodipodi:rx="2.6833632"
     sodipodi:ry="2.6833632"
     d="m -382.82646,126.11806 a 2.6833632,2.6833632 0 1 1 -5.36673,0 2.6833632,2.6833632 0 1 1 5.36673,0 z"
     transform="matrix(0.93166665,0,0,0.93166665,417.62982,339.44895)" />
  <path
     sodipodi:type="arc"
     style="fill:#000000;fill-opacity:1"
     id="path3203-7"
     sodipodi:cx="-385.50983"
     sodipodi:cy="126.11806"
     sodipodi:rx="2.6833632"
     sodipodi:ry="2.6833632"
     d="m -382.82646,126.11806 a 2.6833632,2.6833632 0 1 1 -5.36673,0 2.6833632,2.6833632 0 1 1 5.36673,0 z"
     transform="matrix(0.93166665,0,0,0.93166665,399.77756,263.4696)" />
  <path
     sodipodi:type="arc"
     style="fill:#000000;fill-opacity:1"
     id="path3203-2-42"
     sodipodi:cx="-385.50983"
     sodipodi:cy="126.11806"
     sodipodi:rx="2.6833632"
     sodipodi:ry="2.6833632"
     d="m -382.82646,126.11806 a 2.6833632,2.6833632 0 1 1 -5.36673,0 2.6833632,2.6833632 0 1 1 5.36673,0 z"
     transform="matrix(0.93166665,0,0,0.93166665,404.77756,263.4696)" />
  <path
     sodipodi:type="arc"
     style="fill:#000000;fill-opacity:1"
     id="path3203-3-7"
     sodipodi:cx="-385.50983"
     sodipodi:cy="126.11806"
     sodipodi:rx="2.6833632"
     sodipodi:ry="2.6833632"
     d="m -382.82646,126.11806 a 2.6833632,2.6833632 0 1 1 -5.36673,0 2.6833632,2.6833632 0 1 1 5.36673,0 z"
     transform="matrix(0.93166665,0,0,0.93166665,409.77756,263.4696)" />
  <path
     sodipodi:type="arc"
     style="fill:#000000;fill-opacity:1"
     id="path3203-2-2-7"
     sodipodi:cx="-385.50983"
     sodipodi:cy="126.11806"
     sodipodi:rx="2.6833632"
     sodipodi:ry="2.6833632"
     d="m -382.82646,126.11806 a 2.6833632,2.6833632 0 1 1 -5.36673,0 2.6833632,2.6833632 0 1 1 5.36673,0 z"
     transform="matrix(0.93166665,0,0,0.93166665,414.77756,263.4696)" />
  <path
     sodipodi:type="arc"
     style="fill:#000000;fill-opacity:1"
     id="path3203-9"
     sodipodi:cx="-385.50983"
     sodipodi:cy="126.11806"
     sodipodi:rx="2.6833632"
     sodipodi:ry="2.6833632"
     d="m -382.82646,126.11806 a 2.6833632,2.6833632 0 1 1 -5.36673,0 2.6833632,2.6833632 0 1 1 5.36673,0 z"
     transform="matrix(0.93166665,0,0,0.93166665,550.26951,262.57515)" />
  <path
     sodipodi:type="arc"
     style="fill:#000000;fill-opacity:1"
     id="path3203-2-3"
     sodipodi:cx="-385.50983"
     sodipodi:cy="126.11806"
     sodipodi:rx="2.6833632"
     sodipodi:ry="2.6833632"
     d="m -382.82646,126.11806 a 2.6833632,2.6833632 0 1 1 -5.36673,0 2.6833632,2.6833632 0 1 1 5.36673,0 z"
     transform="matrix(0.93166665,0,0,0.93166665,555.26951,262.57515)" />
  <path
     sodipodi:type="arc"
     style="fill:#000000;fill-opacity:1"
     id="path3203-3-19"
     sodipodi:cx="-385.50983"
     sodipodi:cy="126.11806"
     sodipodi:rx="2.6833632"
     sodipodi:ry="2.6833632"
     d="m -382.82646,126.11806 a 2.6833632,2.6833632 0 1 1 -5.36673,0 2.6833632,2.6833632 0 1 1 5.36673,0 z"
     transform="matrix(0.93166665,0,0,0.93166665,560.26951,262.57515)" />
  <path
     sodipodi:type="arc"
     style="fill:#000000;fill-opacity:1"
     id="path3203-2-2-8"
     sodipodi:cx="-385.50983"
     sodipodi:cy="126.11806"
     sodipodi:rx="2.6833632"
     sodipodi:ry="2.6833632"
     d="m -382.82646,126.11806 a 2.6833632,2.6833632 0 1 1 -5.36673,0 2.6833632,2.6833632 0 1 1 5.36673,0 z"
     transform="matrix(0.93166665,0,0,0.93166665,565.26951,262.57515)" />
  <path
     sodipodi:type="arc"
     style="fill:#000000;fill-opacity:1"
     id="path3203-65"
     sodipodi:cx="-385.50983"
     sodipodi:cy="126.11806"
     sodipodi:rx="2.6833632"
     sodipodi:ry="2.6833632"
     d="m -382.82646,126.11806 a 2.6833632,2.6833632 0 1 1 -5.36673,0 2.6833632,2.6833632 0 1 1 5.36673,0 z"
     transform="matrix(0.93166665,0,0,0.93166665,399.10672,-36.843458)" />
  <path
     sodipodi:type="arc"
     style="fill:#000000;fill-opacity:1"
     id="path3203-2-0"
     sodipodi:cx="-385.50983"
     sodipodi:cy="126.11806"
     sodipodi:rx="2.6833632"
     sodipodi:ry="2.6833632"
     d="m -382.82646,126.11806 a 2.6833632,2.6833632 0 1 1 -5.36673,0 2.6833632,2.6833632 0 1 1 5.36673,0 z"
     transform="matrix(0.93166665,0,0,0.93166665,404.10672,-36.843458)" />
  <path
     sodipodi:type="arc"
     style="fill:#000000;fill-opacity:1"
     id="path3203-3-2"
     sodipodi:cx="-385.50983"
     sodipodi:cy="126.11806"
     sodipodi:rx="2.6833632"
     sodipodi:ry="2.6833632"
     d="m -382.82646,126.11806 a 2.6833632,2.6833632 0 1 1 -5.36673,0 2.6833632,2.6833632 0 1 1 5.36673,0 z"
     transform="matrix(0.93166665,0,0,0.93166665,409.10672,-36.843458)" />
  <path
     sodipodi:type="arc"
     style="fill:#000000;fill-opacity:1"
     id="path3203-2-2-86"
     sodipodi:cx="-385.50983"
     sodipodi:cy="126.11806"
     sodipodi:rx="2.6833632"
     sodipodi:ry="2.6833632"
     d="m -382.82646,126.11806 a 2.6833632,2.6833632 0 1 1 -5.36673,0 2.6833632,2.6833632 0 1 1 5.36673,0 z"
     transform="matrix(0.93166665,0,0,0.93166665,414.10672,-36.843458)" />
  <path
     sodipodi:type="arc"
     style="fill:#000000;fill-opacity:1"
     id="path3203-0"
     sodipodi:cx="-385.50983"
     sodipodi:cy="126.11806"
     sodipodi:rx="2.6833632"
     sodipodi:ry="2.6833632"
     d="m -382.82646,126.11806 a 2.6833632,2.6833632 0 1 1 -5.36673,0 2.6833632,2.6833632 0 1 1 5.36673,0 z"
     transform="matrix(0.93166665,0,0,0.93166665,398.70494,113.16718)" />
  <path
     sodipodi:type="arc"
     style="fill:#000000;fill-opacity:1"
     id="path3203-2-24"
     sodipodi:cx="-385.50983"
     sodipodi:cy="126.11806"
     sodipodi:rx="2.6833632"
     sodipodi:ry="2.6833632"
     d="m -382.82646,126.11806 a 2.6833632,2.6833632 0 1 1 -5.36673,0 2.6833632,2.6833632 0 1 1 5.36673,0 z"
     transform="matrix(0.93166665,0,0,0.93166665,403.70494,113.16718)" />
  <path
     sodipodi:type="arc"
     style="fill:#000000;fill-opacity:1"
     id="path3203-3-86"
     sodipodi:cx="-385.50983"
     sodipodi:cy="126.11806"
     sodipodi:rx="2.6833632"
     sodipodi:ry="2.6833632"
     d="m -382.82646,126.11806 a 2.6833632,2.6833632 0 1 1 -5.36673,0 2.6833632,2.6833632 0 1 1 5.36673,0 z"
     transform="matrix(0.93166665,0,0,0.93166665,408.70494,113.16718)" />
  <path
     sodipodi:type="arc"
     style="fill:#000000;fill-opacity:1"
     id="path3203-2-2-50"
     sodipodi:cx="-385.50983"
     sodipodi:cy="126.11806"
     sodipodi:rx="2.6833632"
     sodipodi:ry="2.6833632"
     d="m -382.82646,126.11806 a 2.6833632,2.6833632 0 1 1 -5.36673,0 2.6833632,2.6833632 0 1 1 5.36673,0 z"
     transform="matrix(0.93166665,0,0,0.93166665,413.70494,113.16718)" />
  <path
     sodipodi:type="arc"
     style="fill:#000000;fill-opacity:1"
     id="path3203-90"
     sodipodi:cx="-385.50983"
     sodipodi:cy="126.11806"
     sodipodi:rx="2.6833632"
     sodipodi:ry="2.6833632"
     d="m -382.82646,126.11806 a 2.6833632,2.6833632 0 1 1 -5.36673,0 2.6833632,2.6833632 0 1 1 5.36673,0 z"
     transform="matrix(0.93166665,0,0,0.93166665,476.74089,262.79876)" />
  <path
     sodipodi:type="arc"
     style="fill:#000000;fill-opacity:1"
     id="path3203-2-06"
     sodipodi:cx="-385.50983"
     sodipodi:cy="126.11806"
     sodipodi:rx="2.6833632"
     sodipodi:ry="2.6833632"
     d="m -382.82646,126.11806 a 2.6833632,2.6833632 0 1 1 -5.36673,0 2.6833632,2.6833632 0 1 1 5.36673,0 z"
     transform="matrix(0.93166665,0,0,0.93166665,481.74089,262.79876)" />
  <path
     sodipodi:type="arc"
     style="fill:#000000;fill-opacity:1"
     id="path3203-3-13"
     sodipodi:cx="-385.50983"
     sodipodi:cy="126.11806"
     sodipodi:rx="2.6833632"
     sodipodi:ry="2.6833632"
     d="m -382.82646,126.11806 a 2.6833632,2.6833632 0 1 1 -5.36673,0 2.6833632,2.6833632 0 1 1 5.36673,0 z"
     transform="matrix(0.93166665,0,0,0.93166665,486.74089,262.79876)" />
  <path
     sodipodi:type="arc"
     style="fill:#000000;fill-opacity:1"
     id="path3203-8"
     sodipodi:cx="-385.50983"
     sodipodi:cy="126.11806"
     sodipodi:rx="2.6833632"
     sodipodi:ry="2.6833632"
     d="m -382.82646,126.11806 a 2.6833632,2.6833632 0 1 1 -5.36673,0 2.6833632,2.6833632 0 1 1 5.36673,0 z"
     transform="matrix(0.93166665,0,0,0.93166665,402.27756,188.33543)" />
  <path
     sodipodi:type="arc"
     style="fill:#000000;fill-opacity:1"
     id="path3203-2-9"
     sodipodi:cx="-385.50983"
     sodipodi:cy="126.11806"
     sodipodi:rx="2.6833632"
     sodipodi:ry="2.6833632"
     d="m -382.82646,126.11806 a 2.6833632,2.6833632 0 1 1 -5.36673,0 2.6833632,2.6833632 0 1 1 5.36673,0 z"
     transform="matrix(0.93166665,0,0,0.93166665,407.27756,188.33543)" />
  <path
     sodipodi:type="arc"
     style="fill:#000000;fill-opacity:1"
     id="path3203-3-34"
     sodipodi:cx="-385.50983"
     sodipodi:cy="126.11806"
     sodipodi:rx="2.6833632"
     sodipodi:ry="2.6833632"
     d="m -382.82646,126.11806 a 2.6833632,2.6833632 0 1 1 -5.36673,0 2.6833632,2.6833632 0 1 1 5.36673,0 z"
     transform="matrix(0.93166665,0,0,0.93166665,412.27756,188.33543)" />
  <path
     sodipodi:type="arc"
     style="fill:#000000;fill-opacity:1"
     id="path3203-4"
     sodipodi:cx="-385.50983"
     sodipodi:cy="126.11806"
     sodipodi:rx="2.6833632"
     sodipodi:ry="2.6833632"
     d="m -382.82646,126.11806 a 2.6833632,2.6833632 0 1 1 -5.36673,0 2.6833632,2.6833632 0 1 1 5.36673,0 z"
     transform="matrix(0.93166665,0,0,0.93166665,553.66396,188.55904)" />
  <path
     sodipodi:type="arc"
     style="fill:#000000;fill-opacity:1"
     id="path3203-2-60"
     sodipodi:cx="-385.50983"
     sodipodi:cy="126.11806"
     sodipodi:rx="2.6833632"
     sodipodi:ry="2.6833632"
     d="m -382.82646,126.11806 a 2.6833632,2.6833632 0 1 1 -5.36673,0 2.6833632,2.6833632 0 1 1 5.36673,0 z"
     transform="matrix(0.93166665,0,0,0.93166665,558.66396,188.55904)" />
  <path
     sodipodi:type="arc"
     style="fill:#000000;fill-opacity:1"
     id="path3203-3-6"
     sodipodi:cx="-385.50983"
     sodipodi:cy="126.11806"
     sodipodi:rx="2.6833632"
     sodipodi:ry="2.6833632"
     d="m -382.82646,126.11806 a 2.6833632,2.6833632 0 1 1 -5.36673,0 2.6833632,2.6833632 0 1 1 5.36673,0 z"
     transform="matrix(0.93166665,0,0,0.93166665,563.66396,188.55904)" />
  <path
     sodipodi:type="arc"
     style="fill:#000000;fill-opacity:1"
     id="path3203-61"
     sodipodi:cx="-385.50983"
     sodipodi:cy="126.11806"
     sodipodi:rx="2.6833632"
     sodipodi:ry="2.6833632"
     d="m -382.82646,126.11806 a 2.6833632,2.6833632 0 1 1 -5.36673,0 2.6833632,2.6833632 0 1 1 5.36673,0 z"
     transform="matrix(0.93166665,0,0,0.93166665,552.09867,37.396255)" />
  <path
     sodipodi:type="arc"
     style="fill:#000000;fill-opacity:1"
     id="path3203-2-8"
     sodipodi:cx="-385.50983"
     sodipodi:cy="126.11806"
     sodipodi:rx="2.6833632"
     sodipodi:ry="2.6833632"
     d="m -382.82646,126.11806 a 2.6833632,2.6833632 0 1 1 -5.36673,0 2.6833632,2.6833632 0 1 1 5.36673,0 z"
     transform="matrix(0.93166665,0,0,0.93166665,557.09867,37.396255)" />
  <path
     sodipodi:type="arc"
     style="fill:#000000;fill-opacity:1"
     id="path3203-3-4"
     sodipodi:cx="-385.50983"
     sodipodi:cy="126.11806"
     sodipodi:rx="2.6833632"
     sodipodi:ry="2.6833632"
     d="m -382.82646,126.11806 a 2.6833632,2.6833632 0 1 1 -5.36673,0 2.6833632,2.6833632 0 1 1 5.36673,0 z"
     transform="matrix(0.93166665,0,0,0.93166665,562.09867,37.396255)" />
  <path
     sodipodi:type="arc"
     style="fill:#000000;fill-opacity:1"
     id="path3203-96"
     sodipodi:cx="-385.50983"
     sodipodi:cy="126.11806"
     sodipodi:rx="2.6833632"
     sodipodi:ry="2.6833632"
     d="m -382.82646,126.11806 a 2.6833632,2.6833632 0 1 1 -5.36673,0 2.6833632,2.6833632 0 1 1 5.36673,0 z"
     transform="matrix(0.93166665,0,0,0.93166665,556.61119,113.87211)" />
  <path
     sodipodi:type="arc"
     style="fill:#000000;fill-opacity:1"
     id="path3203-2-37"
     sodipodi:cx="-385.50983"
     sodipodi:cy="126.11806"
     sodipodi:rx="2.6833632"
     sodipodi:ry="2.6833632"
     d="m -382.82646,126.11806 a 2.6833632,2.6833632 0 1 1 -5.36673,0 2.6833632,2.6833632 0 1 1 5.36673,0 z"
     transform="matrix(0.93166665,0,0,0.93166665,561.61119,113.87211)" />
  <path
     sodipodi:type="arc"
     style="fill:#000000;fill-opacity:1"
     id="path3203-88"
     sodipodi:cx="-385.50983"
     sodipodi:cy="126.11806"
     sodipodi:rx="2.6833632"
     sodipodi:ry="2.6833632"
     d="m -382.82646,126.11806 a 2.6833632,2.6833632 0 1 1 -5.36673,0 2.6833632,2.6833632 0 1 1 5.36673,0 z"
     transform="matrix(0.93166665,0,0,0.93166665,405.67202,38.29071)" />
  <path
     sodipodi:type="arc"
     style="fill:#000000;fill-opacity:1"
     id="path3203-2-29"
     sodipodi:cx="-385.50983"
     sodipodi:cy="126.11806"
     sodipodi:rx="2.6833632"
     sodipodi:ry="2.6833632"
     d="m -382.82646,126.11806 a 2.6833632,2.6833632 0 1 1 -5.36673,0 2.6833632,2.6833632 0 1 1 5.36673,0 z"
     transform="matrix(0.93166665,0,0,0.93166665,410.67202,38.29071)" />
  <path
     sodipodi:type="arc"
     style="fill:#000000;fill-opacity:1"
     id="path3203-13"
     sodipodi:cx="-385.50983"
     sodipodi:cy="126.11806"
     sodipodi:rx="2.6833632"
     sodipodi:ry="2.6833632"
     d="m -382.82646,126.11806 a 2.6833632,2.6833632 0 1 1 -5.36673,0 2.6833632,2.6833632 0 1 1 5.36673,0 z"
     transform="matrix(0.93166665,0,0,0.93166665,480.13535,338.90411)" />
  <path
     sodipodi:type="arc"
     style="fill:#000000;fill-opacity:1"
     id="path3203-2-5"
     sodipodi:cx="-385.50983"
     sodipodi:cy="126.11806"
     sodipodi:rx="2.6833632"
     sodipodi:ry="2.6833632"
     d="m -382.82646,126.11806 a 2.6833632,2.6833632 0 1 1 -5.36673,0 2.6833632,2.6833632 0 1 1 5.36673,0 z"
     transform="matrix(0.93166665,0,0,0.93166665,485.13535,338.90411)" />
  <path
     sodipodi:type="arc"
     style="fill:#000000;fill-opacity:1"
     id="path3203-98"
     sodipodi:cx="-385.50983"
     sodipodi:cy="126.11806"
     sodipodi:rx="2.6833632"
     sodipodi:ry="2.6833632"
     d="m -382.82646,126.11806 a 2.6833632,2.6833632 0 1 1 -5.36673,0 2.6833632,2.6833632 0 1 1 5.36673,0 z"
     transform="matrix(0.93166665,0,0,0.93166665,555.94035,338.38015)" />
  <path
     sodipodi:type="arc"
     style="fill:#000000;fill-opacity:1"
     id="path3203-2-40"
     sodipodi:cx="-385.50983"
     sodipodi:cy="126.11806"
     sodipodi:rx="2.6833632"
     sodipodi:ry="2.6833632"
     d="m -382.82646,126.11806 a 2.6833632,2.6833632 0 1 1 -5.36673,0 2.6833632,2.6833632 0 1 1 5.36673,0 z"
     transform="matrix(0.93166665,0,0,0.93166665,560.94035,338.38015)" />
  <path
     sodipodi:type="arc"
     style="fill:#000000;fill-opacity:1"
     id="path3203-2-36"
     sodipodi:cx="-385.50983"
     sodipodi:cy="126.11806"
     sodipodi:rx="2.6833632"
     sodipodi:ry="2.6833632"
     d="m -382.82646,126.11806 a 2.6833632,2.6833632 0 1 1 -5.36673,0 2.6833632,2.6833632 0 1 1 5.36673,0 z"
     transform="matrix(0.93166665,0,0,0.93166665,480.84643,113.64849)" />
  <path
     sodipodi:type="arc"
     style="fill:#000000;fill-opacity:1"
     id="path3203-2-36-1"
     sodipodi:cx="-385.50983"
     sodipodi:cy="126.11806"
     sodipodi:rx="2.6833632"
     sodipodi:ry="2.6833632"
     d="m -382.82646,126.11806 a 2.6833632,2.6833632 0 1 1 -5.36673,0 2.6833632,2.6833632 0 1 1 5.36673,0 z"
     transform="matrix(0.93166665,0,0,0.93166665,481.9645,-36.396232)" />
</svg>
